<?xml version="1.0" encoding="UTF-8"?>
<!DOCTYPE svg PUBLIC "-//W3C//DTD SVG 1.1//EN" "http://www.w3.org/Graphics/SVG/1.1/DTD/svg11.dtd">
<!--Generated by Origin-->
<svg xmlns="http://www.w3.org/2000/svg" xmlns:xlink="http://www.w3.org/1999/xlink" xmlns:olab="http://www.originlab.com/namespaces/olab" viewBox="0,0 1545,1182" width="272.288545mm" height="208.407417mm">
	<svg xmlns="http://www.w3.org/2000/svg" xmlns:xlink="http://www.w3.org/1999/xlink" xmlns:olab="http://www.originlab.com/namespaces/olab" viewBox="0,0 6432.98,4923.97" width="1542.999877" height="1180.999877" x="0.000122" y="0.000122" preserveAspectRatio="none">
		<polyline points="1588,4103 1588,570" style="stroke: #C0C0C0;stroke-width: 8;stroke-linecap:butt;stroke-linejoin:round" fill="none" olab:comment="" olab:scope="Layer0" class="Layer0"/>
		<polyline points="2466,4103 2466,570" style="stroke: #C0C0C0;stroke-width: 8;stroke-linecap:butt;stroke-linejoin:round" fill="none" olab:comment="" olab:scope="Layer0" class="Layer0"/>
		<polyline points="3344,4103 3344,570" style="stroke: #C0C0C0;stroke-width: 8;stroke-linecap:butt;stroke-linejoin:round" fill="none" olab:comment="" olab:scope="Layer0" class="Layer0"/>
		<polyline points="4221,4103 4221,570" style="stroke: #C0C0C0;stroke-width: 8;stroke-linecap:butt;stroke-linejoin:round" fill="none" olab:comment="" olab:scope="Layer0" class="Layer0"/>
		<polyline points="5099,4103 5099,570" style="stroke: #C0C0C0;stroke-width: 8;stroke-linecap:butt;stroke-linejoin:round" fill="none" olab:comment="" olab:scope="Layer0" class="Layer0"/>
		<polyline points="1149,3809 5538,3809" style="stroke: #C0C0C0;stroke-width: 8;stroke-linecap:butt;stroke-linejoin:round" fill="none" olab:comment="" olab:scope="Layer0" class="Layer0"/>
		<polyline points="1149,3220 5538,3220" style="stroke: #C0C0C0;stroke-width: 8;stroke-linecap:butt;stroke-linejoin:round" fill="none" olab:comment="" olab:scope="Layer0" class="Layer0"/>
		<polyline points="1149,2631 5538,2631" style="stroke: #C0C0C0;stroke-width: 8;stroke-linecap:butt;stroke-linejoin:round" fill="none" olab:comment="" olab:scope="Layer0" class="Layer0"/>
		<polyline points="1149,2042 5538,2042" style="stroke: #C0C0C0;stroke-width: 8;stroke-linecap:butt;stroke-linejoin:round" fill="none" olab:comment="" olab:scope="Layer0" class="Layer0"/>
		<polyline points="1149,1453 5538,1453" style="stroke: #C0C0C0;stroke-width: 8;stroke-linecap:butt;stroke-linejoin:round" fill="none" olab:comment="" olab:scope="Layer0" class="Layer0"/>
		<polyline points="1149,864 5538,864" style="stroke: #C0C0C0;stroke-width: 8;stroke-linecap:butt;stroke-linejoin:round" fill="none" olab:comment="" olab:scope="Layer0" class="Layer0"/>
		<polyline points="1149,4103 5538,4103" style="stroke: black;stroke-width: 13;stroke-linecap:square;stroke-linejoin:round" fill="none" olab:comment="" olab:scope="Layer0" class="Layer0"/>
		<polyline points="1149,4103 1149,4137" style="stroke: black;stroke-width: 13;stroke-linecap:butt;stroke-linejoin:round" fill="none" olab:comment="" olab:scope="Layer0" class="Layer0"/>
		<polyline points="2027,4103 2027,4137" style="stroke: black;stroke-width: 13;stroke-linecap:butt;stroke-linejoin:round" fill="none" olab:comment="" olab:scope="Layer0" class="Layer0"/>
		<polyline points="2905,4103 2905,4137" style="stroke: black;stroke-width: 13;stroke-linecap:butt;stroke-linejoin:round" fill="none" olab:comment="" olab:scope="Layer0" class="Layer0"/>
		<polyline points="3782,4103 3782,4137" style="stroke: black;stroke-width: 13;stroke-linecap:butt;stroke-linejoin:round" fill="none" olab:comment="" olab:scope="Layer0" class="Layer0"/>
		<polyline points="4660,4103 4660,4137" style="stroke: black;stroke-width: 13;stroke-linecap:butt;stroke-linejoin:round" fill="none" olab:comment="" olab:scope="Layer0" class="Layer0"/>
		<polyline points="5538,4103 5538,4137" style="stroke: black;stroke-width: 13;stroke-linecap:butt;stroke-linejoin:round" fill="none" olab:comment="" olab:scope="Layer0" class="Layer0"/>
		<polyline points="1588,4103 1588,4172" style="stroke: black;stroke-width: 13;stroke-linecap:butt;stroke-linejoin:round" fill="none" olab:comment="" olab:scope="Layer0" class="Layer0"/>
		<polyline points="2466,4103 2466,4172" style="stroke: black;stroke-width: 13;stroke-linecap:butt;stroke-linejoin:round" fill="none" olab:comment="" olab:scope="Layer0" class="Layer0"/>
		<polyline points="3344,4103 3344,4172" style="stroke: black;stroke-width: 13;stroke-linecap:butt;stroke-linejoin:round" fill="none" olab:comment="" olab:scope="Layer0" class="Layer0"/>
		<polyline points="4221,4103 4221,4172" style="stroke: black;stroke-width: 13;stroke-linecap:butt;stroke-linejoin:round" fill="none" olab:comment="" olab:scope="Layer0" class="Layer0"/>
		<polyline points="5099,4103 5099,4172" style="stroke: black;stroke-width: 13;stroke-linecap:butt;stroke-linejoin:round" fill="none" olab:comment="" olab:scope="Layer0" class="Layer0"/>
		<polyline points="1149,4103 1149,570" style="stroke: black;stroke-width: 13;stroke-linecap:square;stroke-linejoin:round" fill="none" olab:comment="" olab:scope="Layer0" class="Layer0"/>
		<polyline points="1149,4103 1115,4103" style="stroke: black;stroke-width: 13;stroke-linecap:butt;stroke-linejoin:round" fill="none" olab:comment="" olab:scope="Layer0" class="Layer0"/>
		<polyline points="1149,3514 1115,3514" style="stroke: black;stroke-width: 13;stroke-linecap:butt;stroke-linejoin:round" fill="none" olab:comment="" olab:scope="Layer0" class="Layer0"/>
		<polyline points="1149,2925 1115,2925" style="stroke: black;stroke-width: 13;stroke-linecap:butt;stroke-linejoin:round" fill="none" olab:comment="" olab:scope="Layer0" class="Layer0"/>
		<polyline points="1149,2337 1115,2337" style="stroke: black;stroke-width: 13;stroke-linecap:butt;stroke-linejoin:round" fill="none" olab:comment="" olab:scope="Layer0" class="Layer0"/>
		<polyline points="1149,1748 1115,1748" style="stroke: black;stroke-width: 13;stroke-linecap:butt;stroke-linejoin:round" fill="none" olab:comment="" olab:scope="Layer0" class="Layer0"/>
		<polyline points="1149,1159 1115,1159" style="stroke: black;stroke-width: 13;stroke-linecap:butt;stroke-linejoin:round" fill="none" olab:comment="" olab:scope="Layer0" class="Layer0"/>
		<polyline points="1149,570 1115,570" style="stroke: black;stroke-width: 13;stroke-linecap:butt;stroke-linejoin:round" fill="none" olab:comment="" olab:scope="Layer0" class="Layer0"/>
		<polyline points="1149,3809 1080,3809" style="stroke: black;stroke-width: 13;stroke-linecap:butt;stroke-linejoin:round" fill="none" olab:comment="" olab:scope="Layer0" class="Layer0"/>
		<polyline points="1149,3220 1080,3220" style="stroke: black;stroke-width: 13;stroke-linecap:butt;stroke-linejoin:round" fill="none" olab:comment="" olab:scope="Layer0" class="Layer0"/>
		<polyline points="1149,2631 1080,2631" style="stroke: black;stroke-width: 13;stroke-linecap:butt;stroke-linejoin:round" fill="none" olab:comment="" olab:scope="Layer0" class="Layer0"/>
		<polyline points="1149,2042 1080,2042" style="stroke: black;stroke-width: 13;stroke-linecap:butt;stroke-linejoin:round" fill="none" olab:comment="" olab:scope="Layer0" class="Layer0"/>
		<polyline points="1149,1453 1080,1453" style="stroke: black;stroke-width: 13;stroke-linecap:butt;stroke-linejoin:round" fill="none" olab:comment="" olab:scope="Layer0" class="Layer0"/>
		<polyline points="1149,864 1080,864" style="stroke: black;stroke-width: 13;stroke-linecap:butt;stroke-linejoin:round" fill="none" olab:comment="" olab:scope="Layer0" class="Layer0"/>
		<text x="1381" dominant-baseline="auto" y="4337" fill="black" font-family="Arial,'MS PGothic',SimSun" font-size="150" font-weight="400" olab:comment="" olab:scope="Layer0" class="Layer0">
			<tspan x="1381" style="font-kerning:none">10000</tspan>
		</text>
		<text x="2259" dominant-baseline="auto" y="4337" fill="black" font-family="Arial,'MS PGothic',SimSun" font-size="150" font-weight="400" olab:comment="" olab:scope="Layer0" class="Layer0">
			<tspan x="2259" style="font-kerning:none">20000</tspan>
		</text>
		<text x="3137" dominant-baseline="auto" y="4337" fill="black" font-family="Arial,'MS PGothic',SimSun" font-size="150" font-weight="400" olab:comment="" olab:scope="Layer0" class="Layer0">
			<tspan x="3137" style="font-kerning:none">30000</tspan>
		</text>
		<text x="4014" dominant-baseline="auto" y="4337" fill="black" font-family="Arial,'MS PGothic',SimSun" font-size="150" font-weight="400" olab:comment="" olab:scope="Layer0" class="Layer0">
			<tspan x="4014" style="font-kerning:none">40000</tspan>
		</text>
		<text x="4892" dominant-baseline="auto" y="4337" fill="black" font-family="Arial,'MS PGothic',SimSun" font-size="150" font-weight="400" olab:comment="" olab:scope="Layer0" class="Layer0">
			<tspan x="4892" style="font-kerning:none">50000</tspan>
		</text>
		<text x="736" dominant-baseline="auto" y="3854" fill="black" font-family="Arial,'MS PGothic',SimSun" font-size="150" font-weight="400" olab:comment="" olab:scope="Layer0" class="Layer0">
			<tspan x="736" style="font-kerning:none">−2.5</tspan>
		</text>
		<text x="736" dominant-baseline="auto" y="3265" fill="black" font-family="Arial,'MS PGothic',SimSun" font-size="150" font-weight="400" olab:comment="" olab:scope="Layer0" class="Layer0">
			<tspan x="736" style="font-kerning:none">−2.0</tspan>
		</text>
		<text x="736" dominant-baseline="auto" y="2676" fill="black" font-family="Arial,'MS PGothic',SimSun" font-size="150" font-weight="400" olab:comment="" olab:scope="Layer0" class="Layer0">
			<tspan x="736" style="font-kerning:none">−1.5</tspan>
		</text>
		<text x="736" dominant-baseline="auto" y="2087" fill="black" font-family="Arial,'MS PGothic',SimSun" font-size="150" font-weight="400" olab:comment="" olab:scope="Layer0" class="Layer0">
			<tspan x="736" style="font-kerning:none">−1.0</tspan>
		</text>
		<text x="736" dominant-baseline="auto" y="1498" fill="black" font-family="Arial,'MS PGothic',SimSun" font-size="150" font-weight="400" olab:comment="" olab:scope="Layer0" class="Layer0">
			<tspan x="736" style="font-kerning:none">−0.5</tspan>
		</text>
		<text x="824" dominant-baseline="auto" y="909" fill="black" font-family="Arial,'MS PGothic',SimSun" font-size="150" font-weight="400" olab:comment="" olab:scope="Layer0" class="Layer0">
			<tspan x="824" style="font-kerning:none">0.0</tspan>
		</text>
		<defs>
			<mask id="Cp_1">
				<path d="M 1149,570 L 5539,570 5539,4104 1149,4104Z" fill="white"/>
			</mask>
		</defs>
		<g mask="url(#Cp_1)">
			<rect x="0" y="0" width="6433" height="4924" visibility="hidden" fill="none" opacity="0"/>
			<path d="M 1149,3853 L 1149,1495 1588,1720 2027,1997 2466,2056 2905,2177 3344,2408 3782,2533 4221,2452 4660,2333 5099,2374 5538,2419 5538,3853Z M 1149,3853 L 1149,2101 1588,2500 2027,3090 2466,3335 2905,3696 3344,3853 3782,3799 4221,3631 4660,3224 5099,3110 5538,2987 5538,3853Z" fill="#FDC1C1" fill-opacity="0.498039" fill-rule="evenodd"/>
		</g>
		<defs>
			<mask id="Cp_2">
				<rect x="1149" y="570" width="4390" height="3534" fill="white"/>
			</mask>
		</defs>
		<g mask="url(#Cp_2)">
			<rect x="0" y="0" width="6433" height="4924" visibility="hidden" fill="none" opacity="0"/>
			<polyline points="1149,1495 1588,1720 2027,1997 2466,2056 2905,2177 3344,2408 3782,2533 4221,2452 4660,2333 5099,2374 5538,2419" stroke="none" fill="none" olab:comment="" olab:scope="Layer0-Plot0" class="Layer0-Plot0"/>
			<polyline points="1149,2101 1588,2500 2027,3090 2466,3335 2905,3696 3344,3853 3782,3799 4221,3631 4660,3224 5099,3110 5538,2987" stroke="none" fill="none" olab:comment="" olab:scope="Layer0-Plot0" class="Layer0-Plot0"/>
			<polyline points="1149,1798 1588,2110 2027,2543 2466,2696 2905,2936 3344,3131 3782,3166 4221,3041 4660,2778 5099,2742 5538,2703" style="stroke: #CB0505;stroke-width: 25;stroke-linecap:round;stroke-linejoin:round" fill="none" olab:comment="" olab:scope="Layer0-Plot1" class="Layer0-Plot1"/>
		</g>
		<defs>
			<mask id="Cp_3">
				<path d="M 1149,570 L 5539,570 5539,4104 1149,4104Z" fill="white"/>
			</mask>
		</defs>
		<g mask="url(#Cp_3)">
			<rect x="0" y="0" width="6433" height="4924" visibility="hidden" fill="none" opacity="0"/>
			<path d="M 1149,1417 L 1149,1043 1588,1029 2027,1002 2466,968 2905,906 3344,899 3782,922 4221,913 4660,926 5099,934 5538,936 5538,1417Z M 1149,1417 L 1149,1238 1588,1225 2027,1262 2466,1323 2905,1346 3344,1396 3782,1417 4221,1364 4660,1330 5099,1291 5538,1217 5538,1417Z" fill="#B7E4FF" fill-opacity="0.498039" fill-rule="evenodd"/>
		</g>
		<defs>
			<mask id="Cp_4">
				<rect x="1149" y="570" width="4390" height="3534" fill="white"/>
			</mask>
		</defs>
		<g mask="url(#Cp_4)">
			<rect x="0" y="0" width="6433" height="4924" visibility="hidden" fill="none" opacity="0"/>
			<polyline points="1149,1043 1588,1029 2027,1002 2466,968 2905,906 3344,899 3782,922 4221,913 4660,926 5099,934 5538,936" stroke="none" fill="none" olab:comment="" olab:scope="Layer0-Plot2" class="Layer0-Plot2"/>
			<polyline points="1149,1238 1588,1225 2027,1262 2466,1323 2905,1346 3344,1396 3782,1417 4221,1364 4660,1330 5099,1291 5538,1217" stroke="none" fill="none" olab:comment="" olab:scope="Layer0-Plot2" class="Layer0-Plot2"/>
			<polyline points="1149,1140 1588,1127 2027,1132 2466,1145 2905,1126 3344,1148 3782,1170 4221,1138 4660,1128 5099,1112 5538,1076" style="stroke: #006BAC;stroke-width: 25;stroke-linecap:round;stroke-linejoin:round" fill="none" olab:comment="" olab:scope="Layer0-Plot3" class="Layer0-Plot3"/>
		</g>
		<polyline points="4742,207 5711,207" style="stroke: black;stroke-width: 4;stroke-linecap:square;stroke-linejoin:miter;stroke-miterlimit:10" fill="none" olab:comment="" olab:scope="Layer0" class="Layer0"/>
		<polyline points="5711,207 5711,643" style="stroke: black;stroke-width: 4;stroke-linecap:square;stroke-linejoin:miter;stroke-miterlimit:10" fill="none" olab:comment="" olab:scope="Layer0" class="Layer0"/>
		<polyline points="5711,643 4742,643" style="stroke: black;stroke-width: 4;stroke-linecap:square;stroke-linejoin:miter;stroke-miterlimit:10" fill="none" olab:comment="" olab:scope="Layer0" class="Layer0"/>
		<polyline points="4742,643 4742,207" style="stroke: black;stroke-width: 4;stroke-linecap:square;stroke-linejoin:miter;stroke-miterlimit:10" fill="none" olab:comment="" olab:scope="Layer0" class="Layer0"/>
		<polyline points="4764,323 5136,323" style="stroke: #CB0505;stroke-width: 25;stroke-linecap:round;stroke-linejoin:round" fill="none" olab:comment="" olab:scope="Layer0" class="Layer0"/>
		<text x="5136" dominant-baseline="auto" y="379" fill="black" font-family="Arial,'MS PGothic',SimSun" font-size="166" font-weight="400" olab:comment="" olab:scope="Layer0" class="Layer0">
			<tspan x="5136" style="white-space:pre;font-kerning:none" xml:space="preserve"> </tspan>
		</text>
		<text x="5182" dominant-baseline="auto" y="379" fill="black" font-family="Arial,'MS PGothic',SimSun" font-size="166" font-weight="400" olab:comment="" olab:scope="Layer0" class="Layer0">
			<tspan x="5182" style="font-kerning:none">GCMR</tspan>
		</text>
		<polyline points="4764,528 5136,528" style="stroke: #006BAC;stroke-width: 25;stroke-linecap:round;stroke-linejoin:round" fill="none" olab:comment="" olab:scope="Layer0" class="Layer0"/>
		<text x="5136" dominant-baseline="auto" y="584" fill="black" font-family="Arial,'MS PGothic',SimSun" font-size="166" font-weight="400" olab:comment="" olab:scope="Layer0" class="Layer0">
			<tspan x="5136" style="white-space:pre;font-kerning:none" xml:space="preserve"> </tspan>
		</text>
		<text x="5182" dominant-baseline="auto" y="584" fill="black" font-family="Arial,'MS PGothic',SimSun" font-size="166" font-weight="400" olab:comment="" olab:scope="Layer0" class="Layer0">
			<tspan x="5182" style="font-kerning:none">IACRS</tspan>
		</text>
		<text x="0" dominant-baseline="auto" y="0" fill="black" font-family="Arial,'MS PGothic',SimSun" font-size="184" font-weight="400" transform="matrix(-1.83698e-16 -1 0.999999 -1.83698e-16 659 3040)" olab:comment="" olab:scope="Layer0" class="Layer0">
			<tspan x="0" style="white-space:pre;font-kerning:none" xml:space="preserve">Controller reward</tspan>
		</text>
		<text x="2920" dominant-baseline="auto" y="4620" fill="black" font-family="Arial,'MS PGothic',SimSun" font-size="184" font-weight="400" olab:comment="" olab:scope="Layer0" class="Layer0">
			<tspan x="2920" style="font-kerning:none">Timesteps</tspan>
		</text>
	</svg>
</svg>

